<svg xmlns="http://www.w3.org/2000/svg" viewBox="0 0 164.64 38.37"><defs><style>.cls-1{fill:#001471;}.cls-2{fill:#ff004b;}.cls-3{fill:#00bfbc;}.cls-4{fill:#ff7e00;}</style></defs><g id="Layer_2" data-name="Layer 2"><g id="Layer_1-2" data-name="Layer 1"><path class="cls-1" d="M161.81,2.84A9.24,9.24,0,0,0,155,0a9.35,9.35,0,0,0-6.82,2.84,9.27,9.27,0,0,0-2.8,6.78,9.4,9.4,0,0,0,2.81,6.82,9.39,9.39,0,0,0,6.81,2.8,9.27,9.27,0,0,0,6.78-2.8,9.35,9.35,0,0,0,2.84-6.82A9.23,9.23,0,0,0,161.81,2.84Zm-3.09,10.51a5,5,0,0,1-3.7,1.53,5.22,5.22,0,0,1-5.26-5.26,5,5,0,0,1,1.53-3.7A5.12,5.12,0,0,1,155,4.36a5,5,0,0,1,3.7,1.56,5,5,0,0,1,1.56,3.7A5.12,5.12,0,0,1,158.72,13.35Z"/><path class="cls-1" d="M41.19,0A2.19,2.19,0,0,0,39,2.18v8.06a4.64,4.64,0,0,1-4.64,4.64,4.59,4.59,0,0,1-4.64-4.52V2.18a2.18,2.18,0,0,0-4.36,0v8.06A8.71,8.71,0,0,0,28,16.6a9,9,0,0,0,12.73,0,8.68,8.68,0,0,0,2.64-6.36V2.18A2.19,2.19,0,0,0,41.19,0Z"/><path class="cls-2" d="M2.18,8.79A2.07,2.07,0,0,0,0,10.72v6.59a2.07,2.07,0,0,0,2.18,1.93,2.07,2.07,0,0,0,2.18-1.93V10.72A2.07,2.07,0,0,0,2.18,8.79Z"/><path class="cls-1" d="M17.39,0l-.33,0a2.19,2.19,0,0,0-2.18,2.18v9.61L3.73.62A2.15,2.15,0,0,0,2.18,0H2.07A2.19,2.19,0,0,0,0,2.2v.48A2.11,2.11,0,0,0,.75,3.83L3.18,6.26,15.55,18.64h0a2.27,2.27,0,0,0,1.49.59,1.58,1.58,0,0,0,.38,0A2.23,2.23,0,0,0,19.24,17V2.23A2.23,2.23,0,0,0,17.39,0Z"/><path class="cls-3" d="M100.24,9a2.06,2.06,0,0,0-2.18,1.9v6.48a2.2,2.2,0,0,0,4.36,0V10.85A2.06,2.06,0,0,0,100.24,9Z"/><path class="cls-1" d="M115.45,0a1.84,1.84,0,0,0-.33,0,2.19,2.19,0,0,0-2.18,2.18V11.8L101.79.63A2.14,2.14,0,0,0,100.24,0h-.12a2.17,2.17,0,0,0-2.06,2.2v.47a2.06,2.06,0,0,0,.74,1.15l2.43,2.44,12.37,12.37,0,0a2.31,2.31,0,0,0,1.49.58,2.34,2.34,0,0,0,.38,0A2.23,2.23,0,0,0,117.3,17V2.24A2.23,2.23,0,0,0,115.45,0Z"/><path class="cls-1" d="M92.17,2.18A2.18,2.18,0,0,0,90,0H77.6a2.18,2.18,0,0,0-2.18,2.18V17.06a2.18,2.18,0,0,0,2.18,2.18H90a2.18,2.18,0,0,0,0-4.36H79.77V4.36H90A2.18,2.18,0,0,0,92.17,2.18Z"/><path class="cls-2" d="M83.89,7.44a2.18,2.18,0,0,0,0,4.36h2.58a2.18,2.18,0,1,0,0-4.36Z"/><path class="cls-1" d="M139.74,0H124.86a2.18,2.18,0,0,0,0,4.36h14.88a2.18,2.18,0,0,0,0-4.36Z"/><path class="cls-4" d="M132.3,5.72a2.18,2.18,0,0,0-2.17,2.18v9.16a2.18,2.18,0,1,0,4.35,0V7.9A2.18,2.18,0,0,0,132.3,5.72Z"/><path class="cls-3" d="M52.56,1.11a2.15,2.15,0,0,0-3-.79,2.16,2.16,0,0,0-.79,3l8.58,14.86A2.17,2.17,0,0,0,61.14,16Z"/><path class="cls-1" d="M69,.31a2.17,2.17,0,0,0-3,.8L61.47,8.93a2.14,2.14,0,0,0-.22,1.64,2.17,2.17,0,0,0,4,.53l4.52-7.82a2.17,2.17,0,0,0-.79-3Z"/><path class="cls-1" d="M2.54,35.11,1.37,30.43V35.5a1,1,0,0,1-.19.63.64.64,0,0,1-.5.21.64.64,0,0,1-.49-.21A.9.9,0,0,1,0,35.5V29.69A.72.72,0,0,1,.25,29a1.22,1.22,0,0,1,.68-.17h.46A1.72,1.72,0,0,1,2,29a.49.49,0,0,1,.28.27,3.64,3.64,0,0,1,.2.63l1.07,4,1.07-4a3.64,3.64,0,0,1,.2-.63A.49.49,0,0,1,5.09,29a1.72,1.72,0,0,1,.6-.08h.46a1.22,1.22,0,0,1,.68.17.72.72,0,0,1,.25.65V35.5a.9.9,0,0,1-.19.63.63.63,0,0,1-.5.21.64.64,0,0,1-.49-.21,1,1,0,0,1-.19-.63V30.43L4.54,35.11c-.08.3-.14.52-.19.66a.86.86,0,0,1-.27.39.77.77,0,0,1-.54.18.78.78,0,0,1-.44-.12.83.83,0,0,1-.28-.28,1.68,1.68,0,0,1-.16-.39Z"/><path class="cls-1" d="M12.07,35.57a4.1,4.1,0,0,1-1,.57,2.64,2.64,0,0,1-1,.2,1.92,1.92,0,0,1-.92-.21,1.61,1.61,0,0,1-.62-.56,1.51,1.51,0,0,1-.21-.77,1.4,1.4,0,0,1,.35-1,1.84,1.84,0,0,1,1-.53l.65-.14.88-.19.8-.21a1.47,1.47,0,0,0-.22-.8,1,1,0,0,0-.8-.25,1.61,1.61,0,0,0-.78.15,1.16,1.16,0,0,0-.45.43,2.83,2.83,0,0,1-.27.38c-.05.07-.16.1-.33.1a.59.59,0,0,1-.4-.15.5.5,0,0,1-.17-.38,1.17,1.17,0,0,1,.26-.7,1.84,1.84,0,0,1,.8-.56A3.51,3.51,0,0,1,11,30.77a3.87,3.87,0,0,1,1.42.21,1.32,1.32,0,0,1,.73.68,2.94,2.94,0,0,1,.21,1.22v.81c0,.23,0,.48,0,.75a2.57,2.57,0,0,0,.13.8,3.05,3.05,0,0,1,.13.54.5.5,0,0,1-.2.38.64.64,0,0,1-.45.18.59.59,0,0,1-.41-.2A2.63,2.63,0,0,1,12.07,35.57Zm-.09-2a7.27,7.27,0,0,1-.87.23l-.8.18a1.25,1.25,0,0,0-.42.23.58.58,0,0,0-.2.47.67.67,0,0,0,.24.52.83.83,0,0,0,.61.22,1.6,1.6,0,0,0,.75-.18,1.17,1.17,0,0,0,.5-.45,2,2,0,0,0,.19-1Z"/><path class="cls-1" d="M18.22,35.71l-1.21-2-.74.7v1.09a.81.81,0,0,1-.21.6.64.64,0,0,1-.48.22.61.61,0,0,1-.49-.21.94.94,0,0,1-.18-.62V29.68a1.15,1.15,0,0,1,.17-.7.6.6,0,0,1,.5-.23.63.63,0,0,1,.5.21.94.94,0,0,1,.19.64v3.31l1.54-1.61a3.55,3.55,0,0,1,.43-.41.62.62,0,0,1,.37-.11.57.57,0,0,1,.42.16.53.53,0,0,1,.17.41c0,.2-.18.47-.55.8l-.73.67,1.4,2.2c.11.16.18.29.23.37a.61.61,0,0,1,.06.25.77.77,0,0,1-.17.51.65.65,0,0,1-.47.19.53.53,0,0,1-.39-.14A2.94,2.94,0,0,1,18.22,35.71Z"/><path class="cls-1" d="M21.23,30.14a.7.7,0,0,1-.49-.17.61.61,0,0,1-.2-.5.66.66,0,0,1,.2-.48.72.72,0,0,1,.49-.18.7.7,0,0,1,.47.17.59.59,0,0,1,.2.49.62.62,0,0,1-.2.5A.71.71,0,0,1,21.23,30.14Zm.67,1.42v3.95a.89.89,0,0,1-.19.62.66.66,0,0,1-.5.21.61.61,0,0,1-.49-.22.92.92,0,0,1-.18-.61V31.6a.94.94,0,0,1,.18-.62.66.66,0,0,1,.49-.2.69.69,0,0,1,.5.2A.81.81,0,0,1,21.9,31.56Z"/><path class="cls-1" d="M24.66,31.54v.16a2.34,2.34,0,0,1,.79-.7,2.22,2.22,0,0,1,1.95,0,1.51,1.51,0,0,1,.63.67,1.72,1.72,0,0,1,.18.54,5.13,5.13,0,0,1,0,.74v2.55a.89.89,0,0,1-.19.62.62.62,0,0,1-.49.21.61.61,0,0,1-.49-.22.88.88,0,0,1-.19-.61V33.23a2.24,2.24,0,0,0-.19-1,.77.77,0,0,0-.75-.35,1.13,1.13,0,0,0-.66.21,1.28,1.28,0,0,0-.44.6,4.2,4.2,0,0,0-.1,1.14v1.72a.89.89,0,0,1-.2.62.64.64,0,0,1-.5.21.61.61,0,0,1-.48-.22.88.88,0,0,1-.19-.61V31.56a.85.85,0,0,1,.17-.59.58.58,0,0,1,.46-.19.73.73,0,0,1,.33.08.65.65,0,0,1,.23.26A.87.87,0,0,1,24.66,31.54Z"/><path class="cls-1" d="M34.74,31.78v4a4.36,4.36,0,0,1-.14,1.17,1.91,1.91,0,0,1-.47.81,1.83,1.83,0,0,1-.84.48,4.62,4.62,0,0,1-1.29.16,3.78,3.78,0,0,1-1.26-.2,2.23,2.23,0,0,1-.86-.51,1,1,0,0,1-.3-.65.53.53,0,0,1,.17-.4.6.6,0,0,1,.42-.16.68.68,0,0,1,.52.26l.23.28a1.13,1.13,0,0,0,.26.23,1.06,1.06,0,0,0,.34.15,2.19,2.19,0,0,0,.46,0,2,2,0,0,0,.83-.14.88.88,0,0,0,.41-.42,1.49,1.49,0,0,0,.13-.57c0-.2,0-.52,0-1a2.27,2.27,0,0,1-.72.67,2,2,0,0,1-1,.23,2.06,2.06,0,0,1-1.2-.35,2.28,2.28,0,0,1-.79-1,3.69,3.69,0,0,1-.27-1.46,3.5,3.5,0,0,1,.17-1.11,2.19,2.19,0,0,1,.48-.83,2,2,0,0,1,.71-.52,2.35,2.35,0,0,1,.89-.17,2.12,2.12,0,0,1,1,.22,2.44,2.44,0,0,1,.79.7v-.18a.8.8,0,0,1,.18-.56.55.55,0,0,1,.45-.19.53.53,0,0,1,.52.26A1.64,1.64,0,0,1,34.74,31.78Zm-4,1.73a1.89,1.89,0,0,0,.36,1.26,1.21,1.21,0,0,0,.94.43,1.29,1.29,0,0,0,.65-.19,1.33,1.33,0,0,0,.49-.55,1.86,1.86,0,0,0,.19-.89,2,2,0,0,0-.37-1.3,1.18,1.18,0,0,0-1-.47,1.14,1.14,0,0,0-.94.45A2,2,0,0,0,30.78,33.51Z"/><path class="cls-1" d="M39,30.9h.15v-.82a3.79,3.79,0,0,1,0-.52.75.75,0,0,1,.09-.32.63.63,0,0,1,.23-.23.67.67,0,0,1,.34-.09.69.69,0,0,1,.47.2.61.61,0,0,1,.18.31,3.75,3.75,0,0,1,0,.54v.93H41a.64.64,0,0,1,.44.14.45.45,0,0,1,.15.35.41.41,0,0,1-.22.39,1.43,1.43,0,0,1-.62.11h-.26V34.4a3,3,0,0,0,0,.49.43.43,0,0,0,.12.28.41.41,0,0,0,.32.11,1.52,1.52,0,0,0,.32,0,1.52,1.52,0,0,1,.32,0,.41.41,0,0,1,.3.13.44.44,0,0,1,.13.33.54.54,0,0,1-.36.5,2.35,2.35,0,0,1-1,.18,1.76,1.76,0,0,1-1-.22,1,1,0,0,1-.43-.59,4.07,4.07,0,0,1-.1-1V31.89h-.18a.65.65,0,0,1-.45-.14.47.47,0,0,1,0-.71A.74.74,0,0,1,39,30.9Z"/><path class="cls-1" d="M44,29.58v2a3.66,3.66,0,0,1,.51-.48,1.85,1.85,0,0,1,.55-.26,2.2,2.2,0,0,1,.64-.09,1.88,1.88,0,0,1,.93.22,1.55,1.55,0,0,1,.63.64,1.64,1.64,0,0,1,.2.55,4.68,4.68,0,0,1,0,.7v2.62a.94.94,0,0,1-.19.62.64.64,0,0,1-.5.21c-.45,0-.67-.28-.67-.83V33.2a2.1,2.1,0,0,0-.2-1,.76.76,0,0,0-.74-.35,1.19,1.19,0,0,0-.66.2,1.33,1.33,0,0,0-.44.57A3.82,3.82,0,0,0,44,33.7v1.81a.91.91,0,0,1-.18.61.61.61,0,0,1-.51.22c-.45,0-.67-.28-.67-.83V29.58a1,1,0,0,1,.17-.63.65.65,0,0,1,.5-.2.64.64,0,0,1,.51.21A.92.92,0,0,1,44,29.58Z"/><path class="cls-1" d="M52.74,33.89H50.06a2,2,0,0,0,.19.83,1.28,1.28,0,0,0,1.16.71,1.51,1.51,0,0,0,.44-.06,1.1,1.1,0,0,0,.4-.18l.35-.26.41-.38a.45.45,0,0,1,.3-.09.51.51,0,0,1,.34.11.42.42,0,0,1,.13.33.83.83,0,0,1-.14.43,1.63,1.63,0,0,1-.44.48,2.44,2.44,0,0,1-.74.38,3.11,3.11,0,0,1-1,.15,2.72,2.72,0,0,1-2.05-.75,2.79,2.79,0,0,1-.73-2,3.43,3.43,0,0,1,.18-1.13,2.42,2.42,0,0,1,.52-.88,2.28,2.28,0,0,1,.85-.57,3.11,3.11,0,0,1,1.13-.2,2.6,2.6,0,0,1,1.37.34,2.18,2.18,0,0,1,.86.87,2.3,2.3,0,0,1,.28,1.09c0,.35-.09.57-.29.67A1.89,1.89,0,0,1,52.74,33.89Zm-2.68-.77h2.48a1.63,1.63,0,0,0-.38-1,1.21,1.21,0,0,0-1.7,0A1.8,1.8,0,0,0,50.06,33.12Z"/><path class="cls-1" d="M59.82,29.64,62.68,34V29.6a1,1,0,0,1,.18-.64.62.62,0,0,1,.49-.21.65.65,0,0,1,.51.21,1,1,0,0,1,.18.64v5.77c0,.65-.26,1-.8,1a1,1,0,0,1-.36-.06.92.92,0,0,1-.3-.18,1.93,1.93,0,0,1-.26-.3l-.24-.34-2.79-4.27v4.3a.9.9,0,0,1-.19.63.63.63,0,0,1-.5.22.67.67,0,0,1-.51-.22.93.93,0,0,1-.19-.63V29.82a1.62,1.62,0,0,1,.08-.56.76.76,0,0,1,.32-.37.79.79,0,0,1,.47-.14.86.86,0,0,1,.34.06.76.76,0,0,1,.25.18,1.3,1.3,0,0,1,.22.28Z"/><path class="cls-1" d="M65.78,33.18V29.65A1,1,0,0,1,66,29a.67.67,0,0,1,.53-.22.71.71,0,0,1,.55.22,1,1,0,0,1,.2.68v3.61a3.37,3.37,0,0,0,.14,1,1.16,1.16,0,0,0,.49.64,1.8,1.8,0,0,0,1,.23,1.47,1.47,0,0,0,1.23-.47,2.25,2.25,0,0,0,.36-1.4V29.65a1,1,0,0,1,.2-.68.67.67,0,0,1,.54-.22.7.7,0,0,1,.54.22,1,1,0,0,1,.21.68v3.53a5.23,5.23,0,0,1-.17,1.43,2.19,2.19,0,0,1-.63,1,2.66,2.66,0,0,1-.94.54,4.13,4.13,0,0,1-1.24.17,4.77,4.77,0,0,1-1.45-.19,2.38,2.38,0,0,1-1-.56,2.27,2.27,0,0,1-.57-1A5,5,0,0,1,65.78,33.18Z"/><path class="cls-1" d="M79.18,33.35H77.82v2.08a1,1,0,0,1-.21.68.74.74,0,0,1-1.07,0,1,1,0,0,1-.21-.67V29.78a.93.93,0,0,1,.23-.7,1,1,0,0,1,.71-.21h1.91a5.25,5.25,0,0,1,1.3.13,2,2,0,0,1,.78.42,1.8,1.8,0,0,1,.5.71,2.54,2.54,0,0,1,.17.94,2.08,2.08,0,0,1-.69,1.7A3.12,3.12,0,0,1,79.18,33.35ZM78.82,30h-1v2.24h1a3.1,3.1,0,0,0,.88-.11,1,1,0,0,0,.54-.36,1.1,1.1,0,0,0,.18-.66,1.12,1.12,0,0,0-.28-.79A1.94,1.94,0,0,0,78.82,30Z"/><path class="cls-1" d="M87.91,33.56a3.43,3.43,0,0,1-.19,1.13,2.57,2.57,0,0,1-.55.88,2.4,2.4,0,0,1-.86.57,3.11,3.11,0,0,1-1.13.2,3,3,0,0,1-1.12-.2,2.56,2.56,0,0,1-.86-.58,2.48,2.48,0,0,1-.55-.88,3.33,3.33,0,0,1-.19-1.12,3.45,3.45,0,0,1,.19-1.14,2.48,2.48,0,0,1,.55-.88,2.42,2.42,0,0,1,.86-.56,3.1,3.1,0,0,1,1.12-.2,3.15,3.15,0,0,1,1.13.2,2.4,2.4,0,0,1,.86.57,2.57,2.57,0,0,1,.55.88A3.39,3.39,0,0,1,87.91,33.56Zm-1.37,0a2.07,2.07,0,0,0-.37-1.3,1.21,1.21,0,0,0-1-.47,1.24,1.24,0,0,0-.71.21,1.34,1.34,0,0,0-.47.61,2.52,2.52,0,0,0-.16,1,2.38,2.38,0,0,0,.16.93,1.35,1.35,0,0,0,.46.62,1.25,1.25,0,0,0,.72.21,1.21,1.21,0,0,0,1-.47A2.06,2.06,0,0,0,86.54,33.56Z"/><path class="cls-1" d="M93.49,34.55a1.63,1.63,0,0,1-.28,1,1.65,1.65,0,0,1-.81.61,3.63,3.63,0,0,1-1.31.21,3.19,3.19,0,0,1-1.26-.23,1.92,1.92,0,0,1-.78-.56,1.12,1.12,0,0,1-.25-.68.53.53,0,0,1,.16-.39.58.58,0,0,1,.41-.16.49.49,0,0,1,.33.11,1.29,1.29,0,0,1,.22.3,1.54,1.54,0,0,0,.5.54,1.53,1.53,0,0,0,.8.18,1.15,1.15,0,0,0,.67-.18.51.51,0,0,0,.27-.42.59.59,0,0,0-.28-.53A3.36,3.36,0,0,0,91,34a7.29,7.29,0,0,1-1.14-.37,1.83,1.83,0,0,1-.71-.51,1.15,1.15,0,0,1-.27-.77,1.32,1.32,0,0,1,.25-.78,1.63,1.63,0,0,1,.72-.58A2.68,2.68,0,0,1,91,30.78a4,4,0,0,1,1,.11,2.05,2.05,0,0,1,.7.3,1.31,1.31,0,0,1,.43.41.78.78,0,0,1,.15.44.49.49,0,0,1-.16.38.6.6,0,0,1-.44.15.56.56,0,0,1-.36-.12,2.44,2.44,0,0,1-.34-.36,1,1,0,0,0-.94-.44,1.07,1.07,0,0,0-.61.16.44.44,0,0,0-.25.39.42.42,0,0,0,.18.35,1.4,1.4,0,0,0,.49.23c.2.06.48.14.84.22a5.15,5.15,0,0,1,1,.37,1.86,1.86,0,0,1,.61.51A1.13,1.13,0,0,1,93.49,34.55Z"/><path class="cls-1" d="M99.15,34.55a1.63,1.63,0,0,1-.28,1,1.65,1.65,0,0,1-.81.61,3.63,3.63,0,0,1-1.31.21,3.19,3.19,0,0,1-1.26-.23,1.92,1.92,0,0,1-.78-.56,1.19,1.19,0,0,1-.25-.68.53.53,0,0,1,.16-.39.58.58,0,0,1,.41-.16.49.49,0,0,1,.33.11,1.29,1.29,0,0,1,.22.3,1.54,1.54,0,0,0,.5.54,1.53,1.53,0,0,0,.8.18,1.15,1.15,0,0,0,.67-.18.51.51,0,0,0,.27-.42.57.57,0,0,0-.28-.53,3.36,3.36,0,0,0-.9-.31,7.29,7.29,0,0,1-1.14-.37,1.83,1.83,0,0,1-.71-.51,1.15,1.15,0,0,1-.27-.77,1.32,1.32,0,0,1,.25-.78,1.63,1.63,0,0,1,.72-.58,2.68,2.68,0,0,1,1.15-.22,4,4,0,0,1,1,.11,2.05,2.05,0,0,1,.7.3,1.46,1.46,0,0,1,.44.41.84.84,0,0,1,.14.44.52.52,0,0,1-.15.38.64.64,0,0,1-.45.15.56.56,0,0,1-.36-.12,2.44,2.44,0,0,1-.34-.36,1.22,1.22,0,0,0-.36-.32,1.17,1.17,0,0,0-.58-.12,1.07,1.07,0,0,0-.61.16.46.46,0,0,0-.25.39.42.42,0,0,0,.18.35,1.4,1.4,0,0,0,.49.23c.2.06.48.14.84.22a5.15,5.15,0,0,1,1,.37,1.86,1.86,0,0,1,.61.51A1.13,1.13,0,0,1,99.15,34.55Z"/><path class="cls-1" d="M101.1,30.14a.72.72,0,0,1-.49-.17.64.64,0,0,1-.2-.5.63.63,0,0,1,.21-.48.73.73,0,0,1,.95,0,.59.59,0,0,1,.2.49.62.62,0,0,1-.2.5A.71.71,0,0,1,101.1,30.14Zm.67,1.42v3.95a.89.89,0,0,1-.19.62.66.66,0,0,1-.5.21.58.58,0,0,1-.48-.22.88.88,0,0,1-.19-.61V31.6a.89.89,0,0,1,.19-.62.63.63,0,0,1,.48-.2.69.69,0,0,1,.5.2A.81.81,0,0,1,101.77,31.56Z"/><path class="cls-1" d="M104.55,29.53v2.09a3.11,3.11,0,0,1,.79-.62,2.07,2.07,0,0,1,1-.21,2.23,2.23,0,0,1,1.19.32,2.18,2.18,0,0,1,.8.94,3.41,3.41,0,0,1,.28,1.45,3.7,3.7,0,0,1-.16,1.14,2.54,2.54,0,0,1-.45.9,2.07,2.07,0,0,1-.73.59,2.14,2.14,0,0,1-1,.21,2.27,2.27,0,0,1-.59-.08,1.45,1.45,0,0,1-.47-.2,2.3,2.3,0,0,1-.34-.25l-.36-.39v.14a.84.84,0,0,1-.18.58.63.63,0,0,1-.47.2.6.6,0,0,1-.47-.2.89.89,0,0,1-.17-.58v-6a1,1,0,0,1,.17-.63.55.55,0,0,1,.47-.21.57.57,0,0,1,.48.2A.89.89,0,0,1,104.55,29.53Zm.07,4.06a1.87,1.87,0,0,0,.37,1.25,1.23,1.23,0,0,0,1,.44,1.13,1.13,0,0,0,.89-.45,1.93,1.93,0,0,0,.37-1.28,2.38,2.38,0,0,0-.16-.93,1.4,1.4,0,0,0-.44-.61,1.08,1.08,0,0,0-.66-.21,1.23,1.23,0,0,0-.7.21,1.52,1.52,0,0,0-.48.62A2.35,2.35,0,0,0,104.62,33.59Z"/><path class="cls-1" d="M109.67,35.51V29.58a.92.92,0,0,1,.18-.62.61.61,0,0,1,.49-.21.65.65,0,0,1,.5.2.9.9,0,0,1,.19.63v5.93a.89.89,0,0,1-.19.62.64.64,0,0,1-.5.21.61.61,0,0,1-.49-.22A.92.92,0,0,1,109.67,35.51Z"/><path class="cls-1" d="M116.36,33.89h-2.67a1.72,1.72,0,0,0,.19.83,1.25,1.25,0,0,0,1.15.71,1.63,1.63,0,0,0,.45-.06,1.06,1.06,0,0,0,.39-.18,2.45,2.45,0,0,0,.35-.26l.42-.38a.45.45,0,0,1,.3-.09.53.53,0,0,1,.34.11.42.42,0,0,1,.13.33.86.86,0,0,1-.15.43,1.59,1.59,0,0,1-.43.48,2.57,2.57,0,0,1-.74.38,3.22,3.22,0,0,1-1,.15,2.73,2.73,0,0,1-2-.75,2.83,2.83,0,0,1-.73-2,3.43,3.43,0,0,1,.18-1.13,2.44,2.44,0,0,1,.53-.88,2.2,2.2,0,0,1,.85-.57,3.1,3.1,0,0,1,1.12-.2,2.67,2.67,0,0,1,1.38.34,2.15,2.15,0,0,1,.85.87,2.31,2.31,0,0,1,.29,1.09c0,.35-.1.57-.3.67A1.84,1.84,0,0,1,116.36,33.89Zm-2.67-.77h2.48a1.68,1.68,0,0,0-.38-1,1.15,1.15,0,0,0-.86-.35,1.12,1.12,0,0,0-.84.35A1.8,1.8,0,0,0,113.69,33.12Z"/></g></g></svg>